<svg height="900" width="1440" xmlns="http://www.w3.org/2000/svg"><g stroke-width="1.51"><path d="m775 417-1 98 75-15z" fill="#61a6d1" stroke="#61a6d1"/><path d="m774 515 67 46 8-61z" fill="#59a0ce" stroke="#59a0ce"/><path d="m849 500 20-113-94 30z" fill="#64a8d3" stroke="#64a8d3"/><path d="m935 418-66-31-20 113z" fill="#60a5d1" stroke="#60a5d1"/><path d="m940 513-5-95-86 82z" fill="#579fcd" stroke="#579fcd"/><path d="m775 417-112 68 111 30z" fill="#67abd5" stroke="#67abd5"/><path d="m774 515-28 86 95-40z" fill="#579fcd" stroke="#579fcd"/><path d="m929 558 11-45-91-13z" fill="#509bcb" stroke="#509bcb"/><path d="m775 417-94-28-18 96z" fill="#71b1d7" stroke="#71b1d7"/><path d="m761 319-80 70 94 28z" fill="#77b3d8" stroke="#77b3d8"/><path d="m671 589 75 12 28-86z" fill="#5ba2cf" stroke="#5ba2cf"/><path d="m869 387-108-68 14 98z" fill="#72afd6" stroke="#72afd6"/><path d="m836 303-75 16 108 68z" fill="#77b2d6" stroke="#77b2d6"/><path d="m841 561 88-3-80-58z" fill="#529bcc" stroke="#529bcc"/><path d="m924 648 5-90-88 3z" fill="#4895c8" stroke="#4895c8"/><path d="m947 301-111 2 33 84z" fill="#73aed5" stroke="#73aed5"/><path d="m663 485 8 104 103-74z" fill="#63a7d3" stroke="#63a7d3"/><path d="m761 319-95 19 15 51z" fill="#7fb8da" stroke="#7fb8da"/><path d="m604 411 2 98 57-24z" fill="#75b2d8" stroke="#75b2d8"/><path d="m746 252-80 86 95-19z" fill="#85bbdc" stroke="#85bbdc"/><path d="m663 485-57 24 65 80z" fill="#6babd4" stroke="#6babd4"/><path d="m604 411 59 74 18-96z" fill="#78b4d9" stroke="#78b4d9"/><path d="m666 338-62 73 77-22z" fill="#80b9db" stroke="#80b9db"/><path d="m836 303-7-48-68 64z" fill="#7fb6d9" stroke="#7fb6d9"/><path d="m919 214-90 41 7 48z" fill="#80b5d9" stroke="#80b5d9"/><path d="m672 647 86 32-12-78z" fill="#549bcb" stroke="#549bcb"/><path d="m746 601 93 83 2-123z" fill="#4e98c9" stroke="#4e98c9"/><path d="m839 684 85-36-83-87z" fill="#4793c7" stroke="#4793c7"/><path d="m1041 594-18-102-83 21z" fill="#4893c7" stroke="#4893c7"/><path d="m935 418 12-117-78 86z" fill="#6aa8d2" stroke="#6aa8d2"/><path d="m1027 324-80-23-12 117z" fill="#6aa7d0" stroke="#6aa7d0"/><path d="m758 679 81 5-93-83z" fill="#4d96c9" stroke="#4d96c9"/><path d="m940 513 83-21-88-74z" fill="#539bcc" stroke="#539bcc"/><path d="m1041 594-101-81-11 45z" fill="#4793c7" stroke="#4793c7"/><path d="m829 255-83-3 15 67z" fill="#84b9db" stroke="#84b9db"/><path d="m671 589 1 58 74-46z" fill="#5aa0ce" stroke="#5aa0ce"/><path d="m579 587 93 60-1-58z" fill="#63a4d0" stroke="#63a4d0"/><path d="m1023 492 12-82-100 8z" fill="#579ccc" stroke="#579ccc"/><path d="m606 509-27 78 92 2z" fill="#6baad3" stroke="#6baad3"/><path d="m496 561 83 26 27-78z" fill="#73afd5" stroke="#73afd5"/><path d="m947 301-28-87-83 89z" fill="#7bb2d6" stroke="#7bb2d6"/><path d="m1035 410-8-86-92 94z" fill="#61a1ce" stroke="#61a1ce"/><path d="m666 338-78-33 16 106z" fill="#89bddc" stroke="#89bddc"/><path d="m604 411-87 59 89 39z" fill="#7cb6d9" stroke="#7cb6d9"/><path d="m587 243 1 62 78 33z" fill="#92c3de" stroke="#92c3de"/><path d="m924 648 117-54-112-36z" fill="#4090c5" stroke="#4090c5"/><path d="m1107 508-9-115-63 17z" fill="#5396c9" stroke="#5396c9"/><path d="m746 252-48-37-32 123z" fill="#8cbede" stroke="#8cbede"/><path d="m741 160-43 55 48 37z" fill="#92c0df" stroke="#92c0df"/><path d="m1037 246-118-32 28 87z" fill="#79add5" stroke="#79add5"/><path d="m829 255-88-95 5 92z" fill="#8dbddd" stroke="#8dbddd"/><path d="m839 684 101 70-16-106z" fill="#3d89c2" stroke="#3d89c2"/><path d="m924 648 91 29 26-83z" fill="#3b89c1" stroke="#3b89c1"/><path d="m758 679 71 65 10-60z" fill="#478fc5" stroke="#478fc5"/><path d="m740 758 89-14-71-65z" fill="#488ec5" stroke="#488ec5"/><path d="m506 419 11 51 87-59z" fill="#84bbdb" stroke="#84bbdb"/><path d="m579 587-2 62 95-2z" fill="#65a4d0" stroke="#65a4d0"/><path d="m672 647 68 111 18-79z" fill="#5095c9" stroke="#5095c9"/><path d="m525 649h52l2-62z" fill="#6ba7d1" stroke="#6ba7d1"/><path d="m667 765 73-7-68-111z" fill="#5293c8" stroke="#5293c8"/><path d="m940 754 75-77-91-29z" fill="#3886c0" stroke="#3886c0"/><path d="m510 308-4 111 98-8z" fill="#8dc0dd" stroke="#8dc0dd"/><path d="m1041 594 49-32-67-70z" fill="#438dc4" stroke="#438dc4"/><path d="m1035 410 63-17-71-69z" fill="#609dcc" stroke="#609dcc"/><path d="m1127 656-37-94-49 32z" fill="#3886c0" stroke="#3886c0"/><path d="m1107 508-72-98-12 82z" fill="#4e95c9" stroke="#4e95c9"/><path d="m1027 324 10-78-90 55z" fill="#72a8d2" stroke="#72a8d2"/><path d="m1090 562 17-54-84-16z" fill="#468fc5" stroke="#468fc5"/><path d="m698 215-111 28 79 95z" fill="#92c2df" stroke="#92c2df"/><path d="m588 305-78 3 94 103z" fill="#90c2de" stroke="#90c2de"/><path d="m862 156-121 4 88 95z" fill="#8ebcdd" stroke="#8ebcdd"/><path d="m698 215-9-70-102 98z" fill="#9bc5e2" stroke="#9bc5e2"/><path d="m919 214-57-58-33 99z" fill="#87b7da" stroke="#87b7da"/><path d="m935 156h-73l57 58z" fill="#89b6da" stroke="#89b6da"/><path d="m829 744 111 10-101-70z" fill="#3e88c2" stroke="#3e88c2"/><path d="m924 816 16-62-111-10z" fill="#3782be" stroke="#3782be"/><path d="m1090 320-53-74-10 78z" fill="#6fa4cf" stroke="#6fa4cf"/><path d="m432 485 64 76 21-91z" fill="#81b8d9" stroke="#81b8d9"/><path d="m517 470-21 91 110-52z" fill="#7ab3d7" stroke="#7ab3d7"/><path d="m1098 393-8-73-63 4z" fill="#659ecd" stroke="#659ecd"/><path d="m592 774 75-9-90-116z" fill="#5d98ca" stroke="#5d98ca"/><path d="m577 649 90 116 5-118z" fill="#5c9bcb" stroke="#5c9bcb"/><path d="m740 758 22 63 67-77z" fill="#4589c1" stroke="#4589c1"/><path d="m496 561 29 88 54-62z" fill="#71acd3" stroke="#71acd3"/><path d="m587 243-77 65 78-3z" fill="#9ac7e0" stroke="#9ac7e0"/><path d="m506 419-74 66 85-15z" fill="#87bbdc" stroke="#87bbdc"/><path d="m1007 138-72 18-16 58z" fill="#86b3d9" stroke="#86b3d9"/><path d="m741 160-52-15 9 70z" fill="#98c3e2" stroke="#98c3e2"/><path d="m587 243-89-3 12 68z" fill="#a0cae2" stroke="#a0cae2"/><path d="m769 67-80 78 52 15z" fill="#9cc4e3" stroke="#9cc4e3"/><path d="m769 67-28 93 121-4z" fill="#97c1e1" stroke="#97c1e1"/><path d="m1015 677 112-21-86-62z" fill="#3684bf" stroke="#3684bf"/><path d="m940 754 75-6v-71z" fill="#3280bd" stroke="#3280bd"/><path d="m696 834 66-13-22-63z" fill="#4888c0" stroke="#4888c0"/><path d="m940 754-16 62 91-68z" fill="#317dbb" stroke="#317dbb"/><path d="m862 848 62-32-95-72z" fill="#3980bc" stroke="#3980bc"/><path d="m404 404 28 81 74-66z" fill="#8ebfde" stroke="#8ebfde"/><path d="m496 561-81 36 110 52z" fill="#77aed5" stroke="#77aed5"/><path d="m667 765 29 69 44-76z" fill="#4d8cc3" stroke="#4d8cc3"/><path d="m509 772 83 2-15-125z" fill="#649bcb" stroke="#649bcb"/><path d="m509 772 68-123h-52z" fill="#6aa1ce" stroke="#6aa1ce"/><path d="m1112 746 15-90-112 21z" fill="#2f7cbb" stroke="#2f7cbb"/><path d="m1189 579v-90l-82 19z" fill="#4088c1" stroke="#4088c1"/><path d="m1107 508 82-19-91-96z" fill="#4b8fc6" stroke="#4b8fc6"/><path d="m1098 393 108-90-116 17z" fill="#639acb" stroke="#639acb"/><path d="m510 308-76 19 72 92z" fill="#98c6e0" stroke="#98c6e0"/><path d="m568 152-70 88 89 3z" fill="#a5cce4" stroke="#a5cce4"/><path d="m762 821 100 27-33-104z" fill="#3f83bd" stroke="#3f83bd"/><path d="m579 839 117-5-29-69z" fill="#538cc2" stroke="#538cc2"/><path d="m747 904 115-56-100-27z" fill="#407fba" stroke="#407fba"/><path d="m852 41-83 26 93 89z" fill="#98c0e0" stroke="#98c0e0"/><path d="m1037 246-30-108-88 76z" fill="#81afd6" stroke="#81afd6"/><path d="m1109 214-102-76 30 108z" fill="#7da9d4" stroke="#7da9d4"/><path d="m1189 579-82-71-17 54z" fill="#3e87c1" stroke="#3e87c1"/><path d="m1090 320 19-106-72 32z" fill="#73a4d0" stroke="#73a4d0"/><path d="m689 145-121 7 19 91z" fill="#a2c9e3" stroke="#a2c9e3"/><path d="m498 240-64 87 76-19z" fill="#a1cbe2" stroke="#a1cbe2"/><path d="m1182 246-73-32-19 106z" fill="#70a0ce" stroke="#70a0ce"/><path d="m689 145-20-83-101 90z" fill="#a6cbe5" stroke="#a6cbe5"/><path d="m950 80-88 76h73z" fill="#8db8dc" stroke="#8db8dc"/><path d="m1127 656 62-77-99-17z" fill="#3582be" stroke="#3582be"/><path d="m1189 489 15-61-106-35z" fill="#4e8fc6" stroke="#4e8fc6"/><path d="m1270 399-66 29 90 74z" fill="#4a87c0" stroke="#4a87c0"/><path d="m434 327-30 77 102 15z" fill="#96c4e0" stroke="#96c4e0"/><path d="m432 485-17 112 81-36z" fill="#81b5d9" stroke="#81b5d9"/><path d="m342 586 73 11 17-112z" fill="#84b6da" stroke="#84b6da"/><path d="m1007 138-57-58-15 76z" fill="#8bb5da" stroke="#8bb5da"/><path d="m1027 61-77 19 57 58z" fill="#8cb4da" stroke="#8cb4da"/><path d="m1127 656 78-2-16-75z" fill="#307dba" stroke="#307dba"/><path d="m1015 748 97-2-97-69z" fill="#2e7cbb" stroke="#2e7cbb"/><path d="m1104 846 8-100-97 2z" fill="#2773b5" stroke="#2773b5"/><path d="m1019 847-4-99-91 68z" fill="#2d78b7" stroke="#2d78b7"/><path d="m592 774-13 65 88-74z" fill="#5991c5" stroke="#5991c5"/><path d="m413 681 96 91 16-123z" fill="#6fa3cf" stroke="#6fa3cf"/><path d="m769 67-100-5 20 83z" fill="#a1c8e5" stroke="#a1c8e5"/><path d="m950 80-98-39 10 115z" fill="#93bcde" stroke="#93bcde"/><path d="m769 67-14-87-86 82z" fill="#a3cae5" stroke="#a3cae5"/><path d="m1204 428 2-125-108 90z" fill="#5b94c8" stroke="#5b94c8"/><path d="m509 772 70 67 13-65z" fill="#6194c6" stroke="#6194c6"/><path d="m696 834 51 70 15-83z" fill="#4583bc" stroke="#4583bc"/><path d="m930 930 89-83-95-31z" fill="#2c73b3" stroke="#2c73b3"/><path d="m1121 127-94-66-20 77z" fill="#88aed7" stroke="#88aed7"/><path d="m1206 303-24-57-92 74z" fill="#6a9ccb" stroke="#6a9ccb"/><path d="m679 945 68-41-51-70z" fill="#4780ba" stroke="#4780ba"/><path d="m862 848 68 82-6-114z" fill="#3277b5" stroke="#3277b5"/><path d="m568 152-74-3 4 91z" fill="#accfe6" stroke="#accfe6"/><path d="m498 240-79-3 15 90z" fill="#a7cde4" stroke="#a7cde4"/><path d="m319 330 7 77 78-3z" fill="#a0c8e3" stroke="#a0c8e3"/><path d="m523 62-29 87 74 3z" fill="#b2d2e8" stroke="#b2d2e8"/><path d="m1294 502-90-74-15 61z" fill="#4687c0" stroke="#4687c0"/><path d="m1204 428 66-29-64-96z" fill="#588fc4" stroke="#588fc4"/><path d="m1205 754v-100l-78 2z" fill="#2976b7" stroke="#2976b7"/><path d="m1205 754-78-98-15 90z" fill="#2675b7" stroke="#2675b7"/><path d="m415 597-2 84 112-32z" fill="#77abd3" stroke="#77abd3"/><path d="m509 772-18 59 88 8z" fill="#6494c6" stroke="#6494c6"/><path d="m319 644 94 37 2-84z" fill="#7eaed6" stroke="#7eaed6"/><path d="m494 149-75 88 79 3z" fill="#add1e6" stroke="#add1e6"/><path d="m747 904 123 18-8-74z" fill="#3a79b6" stroke="#3a79b6"/><path d="m936-8-66-12-18 61z" fill="#9bc0e1" stroke="#9bc0e1"/><path d="m1121 127-114 11 102 76z" fill="#82aad5" stroke="#82aad5"/><path d="m1179 161-58-34-12 87z" fill="#7da4d2" stroke="#7da4d2"/><path d="m1291 213-112-52 3 85z" fill="#759bcc" stroke="#759bcc"/><path d="m1182 246-3-85-70 53z" fill="#77a0cf" stroke="#77a0cf"/><path d="m1294 502-105-13v90z" fill="#3e82bd" stroke="#3e82bd"/><path d="m494 149-78 5 3 83z" fill="#b4d3e8" stroke="#b4d3e8"/><path d="m669 62-101-6v96z" fill="#accfe7" stroke="#accfe7"/><path d="m669-5-101 61 101 6z" fill="#add0e7" stroke="#add0e7"/><path d="m404 404-77 67 105 14z" fill="#91c0e0" stroke="#91c0e0"/><path d="m326 407 1 64 77-67z" fill="#98c4e2" stroke="#98c4e2"/><path d="m327 471 15 115 90-101z" fill="#8cbbdd" stroke="#8cbbdd"/><path d="m579 839 100 106 17-111z" fill="#5085bd" stroke="#5085bd"/><path d="m420 774 71 57 18-59z" fill="#6b98c9" stroke="#6b98c9"/><path d="m420 774 89-2-96-91z" fill="#709fce" stroke="#709fce"/><path d="m870 922 60 8-68-82z" fill="#3274b3" stroke="#3274b3"/><path d="m319 330 85 74 30-77z" fill="#a0c9e3" stroke="#a0c9e3"/><path d="m1265 310-83-64 24 57z" fill="#6997c8" stroke="#6997c8"/><path d="m1121 127-4-84-90 18z" fill="#89add7" stroke="#89add7"/><path d="m1029 925 75-79-85 1z" fill="#246baf" stroke="#246baf"/><path d="m1019 847 85-1-89-98z" fill="#2872b4" stroke="#2872b4"/><path d="m1270 399-5-89-59-7z" fill="#5f91c4" stroke="#5f91c4"/><path d="m852 41-97-61 14 87z" fill="#9fc5e3" stroke="#9fc5e3"/><path d="m870-20h-115l97 61z" fill="#9fc5e3" stroke="#9fc5e3"/><path d="m755-20-86 15v67z" fill="#a8cde7" stroke="#a8cde7"/><path d="m936-8-84 49 98 39z" fill="#95bddf" stroke="#95bddf"/><path d="m323 745 97 29-7-93z" fill="#77a3d0" stroke="#77a3d0"/><path d="m568 56-45 6 45 90z" fill="#b2d2e8" stroke="#b2d2e8"/><path d="m570-10-47 72 45-6z" fill="#b6d5e9" stroke="#b6d5e9"/><path d="m1298 574-4-72-105 77z" fill="#397db9" stroke="#397db9"/><path d="m1349 221-58-8-26 97z" fill="#6c93c5" stroke="#6c93c5"/><path d="m1298 574-109 5 16 75z" fill="#317bb9" stroke="#317bb9"/><path d="m1027 61-91-69 14 88z" fill="#91b8dc" stroke="#91b8dc"/><path d="m1018-19-82 11 91 69z" fill="#93b8dc" stroke="#93b8dc"/><path d="m1186 856 19-102-93-8z" fill="#1f6cb1" stroke="#1f6cb1"/><path d="m747 904 93 96 30-78z" fill="#3973af" stroke="#3973af"/><path d="m870 922-30 78 90-70z" fill="#326eab" stroke="#326eab"/><path d="m576 939 103 6-100-106z" fill="#5484bb" stroke="#5484bb"/><path d="m333 248-14 82 115-3z" fill="#abcfe5" stroke="#abcfe5"/><path d="m435 57-19 97 78-5z" fill="#bad6ea" stroke="#bad6ea"/><path d="m225 504 27 59 75-92z" fill="#95bfe0" stroke="#95bfe0"/><path d="m333 248 101 79-15-90z" fill="#acd0e6" stroke="#acd0e6"/><path d="m1205 754 60-87-60-13z" fill="#2672b4" stroke="#2672b4"/><path d="m1265 667 33-93-93 80z" fill="#2c76b6" stroke="#2c76b6"/><path d="m930 930 99-5-10-78z" fill="#286daf" stroke="#286daf"/><path d="m1104 846 82 10-74-110z" fill="#1f6bb0" stroke="#1f6bb0"/><path d="m1029 1008v-83l-99 5z" fill="#2667a6" stroke="#2667a6"/><path d="m252 563 90 23-15-115z" fill="#8fbbdd" stroke="#8fbbdd"/><path d="m252 563 67 81 23-58z" fill="#89b6da" stroke="#89b6da"/><path d="m342 586-23 58 96-47z" fill="#83b2d8" stroke="#83b2d8"/><path d="m416 154-83 94 86-11z" fill="#b4d3e8" stroke="#b4d3e8"/><path d="m488 923 88 16 3-100z" fill="#5d89be" stroke="#5d89be"/><path d="m488 923 91-84-88-8z" fill="#628ec1" stroke="#628ec1"/><path d="m1211 47-94-4 4 84z" fill="#86a8d4" stroke="#86a8d4"/><path d="m1211 47-90 80 58 34z" fill="#82a4d2" stroke="#82a4d2"/><path d="m523 62-88-5 59 92z" fill="#b9d6ea" stroke="#b9d6ea"/><path d="m669-5-99-5-2 66z" fill="#b3d3e9" stroke="#b3d3e9"/><path d="m579-93-9 83 99 5z" fill="#b6d5ea" stroke="#b6d5ea"/><path d="m925-133-66 24 11 89z" fill="#a3c5e3" stroke="#a3c5e3"/><path d="m1088-6-70-13 9 80z" fill="#91b3da" stroke="#91b3da"/><path d="m766 1005 74-5-93-96z" fill="#3c72ab" stroke="#3c72ab"/><path d="m766 1005-19-101-68 41z" fill="#4277b0" stroke="#4277b0"/><path d="m323 818 89 17 8-61z" fill="#739acb" stroke="#739acb"/><path d="m420 774-8 61 79-4z" fill="#6d97c8" stroke="#6d97c8"/><path d="m657 1021 109-16-87-60z" fill="#4474aa" stroke="#4474aa"/><path d="m1029 925 72-2 3-77z" fill="#2067ac" stroke="#2067ac"/><path d="m1205 754 97-14-37-73z" fill="#216cb1" stroke="#216cb1"/><path d="m1029 1008 72-85-72 2z" fill="#2162a4" stroke="#2162a4"/><path d="m1101 923 85-67-82-10z" fill="#1c65ac" stroke="#1c65ac"/><path d="m1265 310 26-97-109 33z" fill="#6c97c8" stroke="#6c97c8"/><path d="m1354 400-89-90 5 89z" fill="#578ac0" stroke="#578ac0"/><path d="m1354 400-84-1 24 103z" fill="#4a84bd" stroke="#4a84bd"/><path d="m482-24-47 81 88 5z" fill="#bed9ec" stroke="#bed9ec"/><path d="m313 140-47 104 67 4z" fill="#bdd7eb" stroke="#bdd7eb"/><path d="m1204-27-116 21 29 49z" fill="#8dacd7" stroke="#8dacd7"/><path d="m1117 43-29-49-61 67z" fill="#8db0d8" stroke="#8db0d8"/><path d="m1365 475-11-75-60 102z" fill="#447fba" stroke="#447fba"/><path d="m576 939 81 82 22-76z" fill="#4e7bb0" stroke="#4e7bb0"/><path d="m407 904 81 19 3-92z" fill="#678ec1" stroke="#678ec1"/><path d="m319 644 4 101 90-64z" fill="#7da9d4" stroke="#7da9d4"/><path d="m412 835-5 69 84-73z" fill="#6c93c5" stroke="#6c93c5"/><path d="m232 395 95 76-1-64z" fill="#9ec6e3" stroke="#9ec6e3"/><path d="m319 644-81 14 85 87z" fill="#84acd6" stroke="#84acd6"/><path d="m232 395 94 12-7-77z" fill="#a6cbe5" stroke="#a6cbe5"/><path d="m1352 595-54-21-33 93z" fill="#2d74b4" stroke="#2d74b4"/><path d="m1352 595-58-93 4 72z" fill="#3679b6" stroke="#3679b6"/><path d="m1352 595 13-120-71 27z" fill="#3b79b7" stroke="#3b79b7"/><path d="m1358 669-6-74-87 72z" fill="#2970b1" stroke="#2970b1"/><path d="m1269 817 33-77-97 14z" fill="#1b67ad" stroke="#1b67ad"/><path d="m755-20-58-74-28 89z" fill="#accfe8" stroke="#accfe8"/><path d="m570-10-88-14 41 86z" fill="#bbd8eb" stroke="#bbd8eb"/><path d="m745-105-48 11 58 74z" fill="#accee8" stroke="#accee8"/><path d="m745-105 10 85 104-89z" fill="#a9cbe6" stroke="#a9cbe6"/><path d="m755-20h115l-11-89z" fill="#a4c7e4" stroke="#a4c7e4"/><path d="m766 1005 159 22-85-27z" fill="#3569a2" stroke="#3569a2"/><path d="m571 1012 86 9-81-82z" fill="#527aad" stroke="#527aad"/><path d="m657 1021 268 6-159-22z" fill="#3b6da3" stroke="#3b6da3"/><path d="m840 1000 85 27 5-97z" fill="#2f69a4" stroke="#2f69a4"/><path d="m870-20 66 12-11-125z" fill="#9ec1e1" stroke="#9ec1e1"/><path d="m237 326-5 69 87-65z" fill="#accee6" stroke="#accee6"/><path d="m266 244 53 86 14-82z" fill="#b4d3e8" stroke="#b4d3e8"/><path d="m925-133 11 125 87-102z" fill="#9dbfe0" stroke="#9dbfe0"/><path d="m1291 213 3-53-115 1z" fill="#779bca" stroke="#779bca"/><path d="m1349 221-55-61-3 53z" fill="#7394c6" stroke="#7394c6"/><path d="m243 763 80 55v-73z" fill="#7da1d0" stroke="#7da1d0"/><path d="m232 395-7 109 102-33z" fill="#9cc5e3" stroke="#9cc5e3"/><path d="m313 140 20 108 83-94z" fill="#bcd7eb" stroke="#bcd7eb"/><path d="m1186 856 83-39-64-63z" fill="#1b66ad" stroke="#1b66ad"/><path d="m1266 927 3-110-83 39z" fill="#155ea6" stroke="#155ea6"/><path d="m266 244-29 82 82 4z" fill="#b3d3e8" stroke="#b3d3e8"/><path d="m1294 160-83-113-32 114z" fill="#7fa0ce" stroke="#7fa0ce"/><path d="m1023-110-87 102 82-11z" fill="#98bbde" stroke="#98bbde"/><path d="m350 70-37 70 103 14z" fill="#c2d9ed" stroke="#c2d9ed"/><path d="m579-93-97 69 88 14z" fill="#bddaec" stroke="#bddaec"/><path d="m1101 923 77 5 8-72z" fill="#1761a8" stroke="#1761a8"/><path d="m925 1027 104-19-99-78z" fill="#2965a1" stroke="#2965a1"/><path d="m350 70 66 84 19-97z" fill="#c0d9ed" stroke="#c0d9ed"/><path d="m507 989 64 23 5-73z" fill="#587fb0" stroke="#587fb0"/><path d="m323 818 84 86 5-69z" fill="#7195c6" stroke="#7195c6"/><path d="m1450 582-3-102-82-5z" fill="#3a74af" stroke="#3a74af"/><path d="m1302 740 56-71-93-2z" fill="#236caf" stroke="#236caf"/><path d="m1382 734-24-65-56 71z" fill="#1e66ab" stroke="#1e66ab"/><path d="m507 989 69-50-88-16z" fill="#5e84b6" stroke="#5e84b6"/><path d="m1130 1018 48-90-77-5z" fill="#195ca0" stroke="#195ca0"/><path d="m323 745v73l97-44z" fill="#789fce" stroke="#789fce"/><path d="m238 658 81-14-67-81z" fill="#8ab4da" stroke="#8ab4da"/><path d="m175 655 63 3-86-60z" fill="#8eb5db" stroke="#8eb5db"/><path d="m1385 323-36-102-84 89z" fill="#668ec1" stroke="#668ec1"/><path d="m1271-9-67-18 7 74z" fill="#89a5d2" stroke="#89a5d2"/><path d="m1385 323-120-13 89 90z" fill="#5b89bf" stroke="#5b89bf"/><path d="m1449 403-95-3 11 75z" fill="#497eb7" stroke="#497eb7"/><path d="m1449 403-64-80-31 77z" fill="#5382b8" stroke="#5382b8"/><path d="m405 1025 102-36-19-66z" fill="#6283b2" stroke="#6283b2"/><path d="m409-39-59 109 85-13z" fill="#c6dcee" stroke="#c6dcee"/><path d="m697-94-118 1 90 88z" fill="#b4d4ea" stroke="#b4d4ea"/><path d="m516-132 63 39 118-1z" fill="#bddaec" stroke="#bddaec"/><path d="m859-109 66-24-180 28z" fill="#a8cae5" stroke="#a8cae5"/><path d="m745-105-229-27 181 38z" fill="#b8d6eb" stroke="#b8d6eb"/><path d="m1023-110-5 91 81-92z" fill="#99b8dc" stroke="#99b8dc"/><path d="m1099-111-81 92 70 13z" fill="#94b5db" stroke="#94b5db"/><path d="m162 328 17 100 53-33z" fill="#abcee7" stroke="#abcee7"/><path d="m232 395-53 33 46 76z" fill="#a0c8e5" stroke="#a0c8e5"/><path d="m225 504-73 94 100-35z" fill="#94bddf" stroke="#94bddf"/><path d="m162 328 70 67 5-69z" fill="#afd0e7" stroke="#afd0e7"/><path d="m162 328 75-2-98-72z" fill="#b8d6ea" stroke="#b8d6ea"/><path d="m238 658 5 105 80-18z" fill="#83a8d4" stroke="#83a8d4"/><path d="m323 818 4 113 80-27z" fill="#7293c5" stroke="#7293c5"/><path d="m175 655 68 108-5-105z" fill="#88aed7" stroke="#88aed7"/><path d="m1211 47-7-74-87 70z" fill="#89a8d4" stroke="#89a8d4"/><path d="m1286 39-75 8 83 113z" fill="#819ecd" stroke="#819ecd"/><path d="m1450 582-85-107-13 120z" fill="#3573b1" stroke="#3573b1"/><path d="m1368 832 14-98-80 6z" fill="#1760a8" stroke="#1760a8"/><path d="m1368 832-66-92-33 77z" fill="#1660a8" stroke="#1660a8"/><path d="m482-24-73-15 26 96z" fill="#c4ddee" stroke="#c4ddee"/><path d="m516-132-107 93 73 15z" fill="#c7dfee" stroke="#c7dfee"/><path d="m1029 1008 101 10-29-95z" fill="#1e5c9e" stroke="#1e5c9e"/><path d="m1178 928 88-1-80-71z" fill="#145ca5" stroke="#145ca5"/><path d="m925 1027 205-9-101-10z" fill="#235d9a" stroke="#235d9a"/><path d="m1450 582-98 13 6 74z" fill="#2a6eae" stroke="#2a6eae"/><path d="m1477 254-100-105-28 72z" fill="#6e8dbe" stroke="#6e8dbe"/><path d="m1377 149-83 11 55 61z" fill="#7593c5" stroke="#7593c5"/><path d="m1349 46-63-7 8 121z" fill="#809aca" stroke="#809aca"/><path d="m1023-110 76-1-174-22z" fill="#9ebddf" stroke="#9ebddf"/><path d="m1204-27-105-84-11 105z" fill="#91b0d8" stroke="#91b0d8"/><path d="m1447 480 2-77-84 72z" fill="#4379b3" stroke="#4379b3"/><path d="m1209 1009 57-82-88 1z" fill="#13569c" stroke="#13569c"/><path d="m313 140-72-7 25 111z" fill="#c4daee" stroke="#c4daee"/><path d="m243 45-2 88 72 7z" fill="#cbdef1" stroke="#cbdef1"/><path d="m243 45 70 95 37-70z" fill="#cadef0" stroke="#cadef0"/><path d="m179 428-29 81 75-5z" fill="#9ec5e3" stroke="#9ec5e3"/><path d="m67 497 83 12-85-99z" fill="#a4c9e5" stroke="#a4c9e5"/><path d="m1447 310-98-89 36 102z" fill="#638abc" stroke="#638abc"/><path d="m152 598 86 60 14-95z" fill="#8eb8dc" stroke="#8eb8dc"/><path d="m139 254 98 72 29-82z" fill="#bad6ea" stroke="#bad6ea"/><path d="m1471 645-21-63-92 87z" fill="#2769a8" stroke="#2769a8"/><path d="m1447 480 76-2-74-75z" fill="#4175ac" stroke="#4175ac"/><path d="m1449 403-2-93-62 13z" fill="#5882b6" stroke="#5882b6"/><path d="m925-133-409 1 229 27z" fill="#b2d2e9" stroke="#b2d2e9"/><path d="m579-93-63-39-34 108z" fill="#c3dded" stroke="#c3dded"/><path d="m150 509 2 89 73-94z" fill="#98c0e0" stroke="#98c0e0"/><path d="m407 904-2 121 83-102z" fill="#6787b9" stroke="#6787b9"/><path d="m507 989-102 36 166-13z" fill="#5e7ead" stroke="#5e7ead"/><path d="m251 839 76 92-4-113z" fill="#7997c8" stroke="#7997c8"/><path d="m251 839 72-21-80-55z" fill="#7e9ece" stroke="#7e9ece"/><path d="m228 905 23-66-86 3z" fill="#7e9aca" stroke="#7e9aca"/><path d="m1363-8-92-1 15 48z" fill="#869ecc" stroke="#869ecc"/><path d="m1286 39-15-48-60 56z" fill="#86a1cf" stroke="#86a1cf"/><path d="m1204-27 1-88-106 4z" fill="#93aed7" stroke="#93aed7"/><path d="m1266 927 102-95-99-15z" fill="#125aa3" stroke="#125aa3"/><path d="m1382 734 89-89-113 24z" fill="#2165a8" stroke="#2165a8"/><path d="m1266 927 109-2-7-93z" fill="#0c549e" stroke="#0c549e"/><path d="m1130 1018 79-9-31-81z" fill="#15569a" stroke="#15569a"/><path d="m327 931 78 94 2-121z" fill="#6c89ba" stroke="#6c89ba"/><path d="m571 1012-166 13 252-4z" fill="#577ba9" stroke="#577ba9"/><path d="m657 1021-252 4 520 2z" fill="#4872a6" stroke="#4872a6"/><path d="m1377 149-28-103-55 114z" fill="#7b96c8" stroke="#7b96c8"/><path d="m1363-8-14 54 84-64z" fill="#8398c7" stroke="#8398c7"/><path d="m1462 762 9-117-89 89z" fill="#1d5fa2" stroke="#1d5fa2"/><path d="m1450 582 73-104-76 2z" fill="#3970a9" stroke="#3970a9"/><path d="m1528 318-51-64-30 56z" fill="#5f81b0" stroke="#5f81b0"/><path d="m394-130-57 82 72 9z" fill="#cfe3f2" stroke="#cfe3f2"/><path d="m409-39-72-9 13 118z" fill="#cbe0f0" stroke="#cbe0f0"/><path d="m241 133-102 121 127-10z" fill="#c2daed" stroke="#c2daed"/><path d="m65 410 85 99 29-81z" fill="#a4cae6" stroke="#a4cae6"/><path d="m70 643 105 12-23-57z" fill="#91b8dc" stroke="#91b8dc"/><path d="m139 146v108l102-121z" fill="#c9ddef" stroke="#c9ddef"/><path d="m1209 1009 50-12 7-70z" fill="#125297" stroke="#125297"/><path d="m337-48-94 93 107 25z" fill="#cee0f2" stroke="#cee0f2"/><path d="m1447 310 30-56-128-33z" fill="#6688b9" stroke="#6688b9"/><path d="m1528 318-81-8 2 93z" fill="#577eb0" stroke="#577eb0"/><path d="m1099-111 106-4-280-18z" fill="#9ab7dc" stroke="#9ab7dc"/><path d="m1292-92-87-23-1 88z" fill="#90a9d3" stroke="#90a9d3"/><path d="m1292-92-88 65 67 18z" fill="#8ca5d1" stroke="#8ca5d1"/><path d="m1529 577-6-99-73 104z" fill="#336aa4" stroke="#336aa4"/><path d="m1471 645 58-68-79 5z" fill="#2a67a3" stroke="#2a67a3"/><path d="m1368 832 94-70-80-28z" fill="#155ba2" stroke="#155ba2"/><path d="m1450 843 12-81-94 70z" fill="#12569c" stroke="#12569c"/><path d="m337-48-88 19-6 74z" fill="#d3e4f3" stroke="#d3e4f3"/><path d="m516-132-122 2 15 91z" fill="#cce2f0" stroke="#cce2f0"/><path d="m251 839-23 66 99 26z" fill="#7994c7" stroke="#7994c7"/><path d="m327 931-6 86 84 8z" fill="#6d86b4" stroke="#6d86b4"/><path d="m165 842 86-3-8-76z" fill="#819fce" stroke="#819fce"/><path d="m142 765 101-2-68-108z" fill="#87aad6" stroke="#87aad6"/><path d="m67 593 85 5-2-89z" fill="#98bfe0" stroke="#98bfe0"/><path d="m70 643 72 122 33-110z" fill="#8eb1d9" stroke="#8eb1d9"/><path d="m249 1027 72-10 6-86z" fill="#7187b6" stroke="#7187b6"/><path d="m1356 1020 19-95-109 2z" fill="#0c4d95" stroke="#0c4d95"/><path d="m1349 46 14-54-77 47z" fill="#839bca" stroke="#839bca"/><path d="m1460 132-111-86 28 103z" fill="#7a92c3" stroke="#7a92c3"/><path d="m1535 661-6-84-58 68z" fill="#27629e" stroke="#27629e"/><path d="m65 410 114 18-17-100z" fill="#adcfe7" stroke="#adcfe7"/><path d="m1477 254-17-122-83 17z" fill="#718bbc" stroke="#718bbc"/><path d="m1522 234-62-102 17 122z" fill="#6b85b5" stroke="#6b85b5"/><path d="m68 309-3 101 97-82z" fill="#b5d5e9" stroke="#b5d5e9"/><path d="m157 73-18 73 102-13z" fill="#cfe0f2" stroke="#cfe0f2"/><path d="m157 73 84 60 2-88z" fill="#cfe1f2" stroke="#cfe1f2"/><path d="m1546 385-97 18 74 75z" fill="#4775a9" stroke="#4775a9"/><path d="m1546 385-18-67-79 85z" fill="#5179ab" stroke="#5179ab"/><path d="m68 309 94 19-23-74z" fill="#bbd8eb" stroke="#bbd8eb"/><path d="m228 905 21 122 78-96z" fill="#768dbd" stroke="#768dbd"/><path d="m142 765 23 77 78-79z" fill="#84a4d1" stroke="#84a4d1"/><path d="m1363-8-71-84-21 83z" fill="#89a0ce" stroke="#89a0ce"/><path d="m321-134-72 105 88-19z" fill="#d6e6f5" stroke="#d6e6f5"/><path d="m67 497v96l83-84z" fill="#9dc3e2" stroke="#9dc3e2"/><path d="m142 765-56 79 79-2z" fill="#85a2cf" stroke="#85a2cf"/><path d="m2 666 65-73-88-12z" fill="#9abedf" stroke="#9abedf"/><path d="m1529 577 17-192-23 93z" fill="#3c6da4" stroke="#3c6da4"/><path d="m1375 925 75-82-82-11z" fill="#0c529b" stroke="#0c529b"/><path d="m1521 734 14-73-64-16z" fill="#215d9c" stroke="#215d9c"/><path d="m76 230-8 79 71-55z" fill="#c2dbed" stroke="#c2dbed"/><path d="m67 593 3 50 82-45z" fill="#95bbde" stroke="#95bbde"/><path d="m1528 318-6-84-45 20z" fill="#6180af" stroke="#6180af"/><path d="m1562 162-40 72 6 84z" fill="#647fad" stroke="#647fad"/><path d="m92 170-16 60 63 24z" fill="#c8deef" stroke="#c8deef"/><path d="m167-29-10 102 86-28z" fill="#d5e4f4" stroke="#d5e4f4"/><path d="m1529 577 6 84 11-276z" fill="#3368a0" stroke="#3368a0"/><path d="m1521 734-50-89-9 117z" fill="#1c5b9d" stroke="#1c5b9d"/><path d="m92 170 47 84v-108z" fill="#cadef0" stroke="#cadef0"/><path d="m1540 832-19-98-59 28z" fill="#155396" stroke="#155396"/><path d="m249-29h-82l76 74z" fill="#d6e5f5" stroke="#d6e5f5"/><path d="m394-130-73-4 16 86z" fill="#d5e6f4" stroke="#d5e6f4"/><path d="m516-132-195-2 73 4z" fill="#d2e5f2" stroke="#d2e5f2"/><path d="m925-133-604-1 195 2z" fill="#c0dced" stroke="#c0dced"/><path d="m65 73 27 97 47-24z" fill="#d2e3f3" stroke="#d2e3f3"/><path d="m70 643 17 126 55-4z" fill="#8daed7" stroke="#8daed7"/><path d="m165 842 10 97 53-34z" fill="#7e97c8" stroke="#7e97c8"/><path d="m1450 843 90-11-78-70z" fill="#125196" stroke="#125196"/><path d="m1375 925 68 12 7-94z" fill="#094c95" stroke="#094c95"/><path d="m1259 997 97 23-90-93z" fill="#0e4e93" stroke="#0e4e93"/><path d="m1209 1009 147 11-97-23z" fill="#0f4c90" stroke="#0f4c90"/><path d="m1130 1018 226 2-147-11z" fill="#124e91" stroke="#124e91"/><path d="m925 1027 431-7-226-2z" fill="#185495" stroke="#185495"/><path d="m86 844 89 95-10-97z" fill="#829bca" stroke="#829bca"/><path d="m321 1017-72 10 156-2z" fill="#6d83b0" stroke="#6d83b0"/><path d="m405 1025-156 2h676z" fill="#597aa9" stroke="#597aa9"/><path d="m175 939 74 88-21-122z" fill="#798ebd" stroke="#798ebd"/><path d="m1433 1015 10-78-68-12z" fill="#09478d" stroke="#09478d"/><path d="m1363-8 11-83-82-1z" fill="#8b9fcc" stroke="#8b9fcc"/><path d="m1460 132 16-88-127 2z" fill="#7c91c0" stroke="#7c91c0"/><path d="m1520 66-44-22-16 88z" fill="#788cb9" stroke="#788cb9"/><path d="m1476 44-43-62-84 64z" fill="#8094c3" stroke="#8094c3"/><path d="m1433-18-59-73-11 83z" fill="#879ac8" stroke="#879ac8"/><path d="m1292-92 82 1-169-24z" fill="#90a5d0" stroke="#90a5d0"/><path d="m157 73h-92l74 73z" fill="#d4e3f4" stroke="#d4e3f4"/><path d="m247-135-80 106h82z" fill="#dbe8f6" stroke="#dbe8f6"/><path d="m2 341-7 70 70-1z" fill="#b4d4ea" stroke="#b4d4ea"/><path d="m65 410-70 1 72 86z" fill="#abcee8" stroke="#abcee8"/><path d="m67 593-65 73 68-23z" fill="#96bbdd" stroke="#96bbdd"/><path d="m-16 834 102 10 1-75z" fill="#8aa4d1" stroke="#8aa4d1"/><path d="m2 341 63 69 3-101z" fill="#b8d6ea" stroke="#b8d6ea"/><path d="m2 341 66-32-79-61z" fill="#c2dced" stroke="#c2dced"/><path d="m68 309 8-79-87 18z" fill="#c5ddee" stroke="#c5ddee"/><path d="m175 939 5 74 69 14z" fill="#788ab8" stroke="#788ab8"/><path d="m87 769-1 75 56-79z" fill="#88a6d2" stroke="#88a6d2"/><path d="m-5 735 92 34-17-126z" fill="#90b1d9" stroke="#90b1d9"/><path d="m-11 248 87-18-111-88z" fill="#cee2f2" stroke="#cee2f2"/><path d="m1522 234 40-72-102-30z" fill="#6e84b2" stroke="#6e84b2"/><path d="m1535-21-94-70-8 73z" fill="#8493be" stroke="#8493be"/><path d="m1546 385 16-223-34 156z" fill="#5d7caa" stroke="#5d7caa"/><path d="m1554 946 8-784-16 223z" fill="#396aa0" stroke="#396aa0"/><path d="m321-134-74-1 2 106z" fill="#dbe8f6" stroke="#dbe8f6"/><path d="m925-133-678-2 74 1z" fill="#cae1ef" stroke="#cae1ef"/><path d="m1433-18 8-73h-67z" fill="#8899c5" stroke="#8899c5"/><path d="m1562 162-42-96-60 66z" fill="#7487b4" stroke="#7487b4"/><path d="m1535 661 19 285-8-561z" fill="#225c99" stroke="#225c99"/><path d="m1521 734 19 98-5-171z" fill="#185595" stroke="#185595"/><path d="m1443 937 97-105-90 11z" fill="#0d4c92" stroke="#0d4c92"/><path d="m-23 514 90 79v-96z" fill="#a0c5e3" stroke="#a0c5e3"/><path d="m-83 480 60 34 18-103z" fill="#accee8" stroke="#accee8"/><path d="m-5 411-18 103 90-17z" fill="#a9cbe6" stroke="#a9cbe6"/><path d="m50 999 130 14-5-74z" fill="#7c8dbb" stroke="#7c8dbb"/><path d="m-23 514 2 67 88 12z" fill="#9fc4e2" stroke="#9fc4e2"/><path d="m1443 937 111 9-14-114z" fill="#09468b" stroke="#09468b"/><path d="m1356 1020 77-5-58-90z" fill="#09468c" stroke="#09468c"/><path d="m71-11-6 84h92z" fill="#d9e7f5" stroke="#d9e7f5"/><path d="m71-11 86 84 10-102z" fill="#dae8f6" stroke="#dae8f6"/><path d="m-118 405 35 75 78-69z" fill="#b3d3ea" stroke="#b3d3ea"/><path d="m-35 142 111 88 16-60z" fill="#cfe2f2" stroke="#cfe2f2"/><path d="m1535-21-102 3 43 62z" fill="#7f8fbc" stroke="#7f8fbc"/><path d="m1374-91h67l-236-24z" fill="#8ea1cd" stroke="#8ea1cd"/><path d="m86 844-34 71 123 24z" fill="#839ac9" stroke="#839ac9"/><path d="m2 666-7 69 75-92z" fill="#95b6db" stroke="#95b6db"/><path d="m-100 664 95 71 7-69z" fill="#97b7dc" stroke="#97b7dc"/><path d="m65 73-100 69 127 28z" fill="#d6e5f4" stroke="#d6e5f4"/><path d="m65-117 6 106 96-18z" fill="#e1ecf8" stroke="#e1ecf8"/><path d="m-16 834 68 81 34-71z" fill="#899fcd" stroke="#899fcd"/><path d="m1520 66 15-87-59 65z" fill="#7b8cb7" stroke="#7b8cb7"/><path d="m1562 162-27-183-15 87z" fill="#7787b3" stroke="#7787b3"/><path d="m247-135-96 2 16 104z" fill="#e0ebf8" stroke="#e0ebf8"/><path d="m-21 581-79 83 102 2z" fill="#9bbddf" stroke="#9bbddf"/><path d="m-23 514-63 72 65-5z" fill="#a2c5e3" stroke="#a2c5e3"/><path d="m-118 405 113 6 7-70z" fill="#b8d6eb" stroke="#b8d6eb"/><path d="m1544 993 10-47-111-9z" fill="#093f82" stroke="#093f82"/><path d="m1540 832 14 114-19-285z" fill="#114c8f" stroke="#114c8f"/><path d="m-83 480-3 106 63-72z" fill="#a8cae5" stroke="#a8cae5"/><path d="m-5 735-11 99 103-65z" fill="#8eaad5" stroke="#8eaad5"/><path d="m-120 766 104 68 11-99z" fill="#93add6" stroke="#93add6"/><path d="m-27 50-8 92 100-69z" fill="#dbe8f6" stroke="#dbe8f6"/><path d="m-11 248-71 57 84 36z" fill="#c5deee" stroke="#c5deee"/><path d="m-27 50 92 23 6-84z" fill="#ddeaf7" stroke="#ddeaf7"/><path d="m-101 227 19 78 71-57z" fill="#cbe1f0" stroke="#cbe1f0"/><path d="m-83 480-35-75 32 181z" fill="#adcee8" stroke="#adcee8"/><path d="m1433 1015 111-22-101-56z" fill="#094083" stroke="#094083"/><path d="m-29 907 79 92 2-84z" fill="#8597c4" stroke="#8597c4"/><path d="m52 915-2 84 125-60z" fill="#8093c0" stroke="#8093c0"/><path d="m180 1013-213 18 282-4z" fill="#7989b4" stroke="#7989b4"/><path d="m1535-21 3-71-97 1z" fill="#8491ba" stroke="#8491ba"/><path d="m1441-91 97-1-333-23z" fill="#8c9cc9" stroke="#8c9cc9"/><path d="m1562 162-24-254-3 71z" fill="#7b8ab4" stroke="#7b8ab4"/><path d="m-82 305-36 100 120-64z" fill="#bfdaec" stroke="#bfdaec"/><path d="m-101 227-17 178 36-100z" fill="#c7dfee" stroke="#c7dfee"/><path d="m-86 586-14 78 79-83z" fill="#9fc1e1" stroke="#9fc1e1"/><path d="m-16 834-13 73 81 8z" fill="#8a9ecc" stroke="#8a9ecc"/><path d="m-118 405 18 259 14-78z" fill="#a7c8e4" stroke="#a7c8e4"/><path d="m-35 142-66 85 90 21z" fill="#d2e4f3" stroke="#d2e4f3"/><path d="m-36-19 9 69 98-61z" fill="#e1edf8" stroke="#e1edf8"/><path d="m-82 147-19 80 66-85z" fill="#d8e7f5" stroke="#d8e7f5"/><path d="m151-133-86 16 102 88z" fill="#e3edf9" stroke="#e3edf9"/><path d="m-88 81 53 61 8-92z" fill="#deeaf7" stroke="#deeaf7"/><path d="m-88 81 6 66 47-5z" fill="#dce9f6" stroke="#dce9f6"/><path d="m-106 853 77 54 13-73z" fill="#8ea3cf" stroke="#8ea3cf"/><path d="m-31-108-5 89 107 8z" fill="#e5eff9" stroke="#e5eff9"/><path d="m-118 405-2 361 20-102z" fill="#a2c3e2" stroke="#a2c3e2"/><path d="m-100 664-20 102 115-31z" fill="#98b5da" stroke="#98b5da"/><path d="m-118-23 30 104 61-31z" fill="#e4eef9" stroke="#e4eef9"/><path d="m-82 147-6-66-13 146z" fill="#dbe9f6" stroke="#dbe9f6"/><path d="m-101 227-17-250v428z" fill="#d6e7f4" stroke="#d6e7f4"/><path d="m-120 766 14 87 90-19z" fill="#92a9d4" stroke="#92a9d4"/><path d="m-29 907-4 124 83-32z" fill="#8493be" stroke="#8493be"/><path d="m-90 1028-6-104-10-71z" fill="#8d9cc7" stroke="#8d9cc7"/><path d="m-106 853 10 71 67-17z" fill="#8ea0cd" stroke="#8ea0cd"/><path d="m-96 924 63 107 4-124z" fill="#8898c3" stroke="#8898c3"/><path d="m50 999-83 32 213-18z" fill="#7e8cb6" stroke="#7e8cb6"/><path d="m249 1027-282 4 958-4z" fill="#6780ad" stroke="#6780ad"/><path d="m-36-19-82-4 91 73z" fill="#e5effa" stroke="#e5effa"/><path d="m65-117-96 9 102 97z" fill="#e6f0f9" stroke="#e6f0f9"/><path d="m151-133-182 25 96-9z" fill="#e8f1fa" stroke="#e8f1fa"/><path d="m-92-96-26 73 82 4z" fill="#ebf2fb" stroke="#ebf2fb"/><path d="m-88 81-30-104 17 250z" fill="#e0ecf8" stroke="#e0ecf8"/><path d="m-118 405v-428l-2 789z" fill="#bdd9ed" stroke="#bdd9ed"/><path d="m-96 924 6 104 57 3z" fill="#8793bc" stroke="#8793bc"/><path d="m-120 766 30 262-16-175z" fill="#90a2ce" stroke="#90a2ce"/><path d="m-31-108-61 12 56 77z" fill="#ebf3fc" stroke="#ebf3fc"/></g></svg>